<?xml version="1.0" encoding="utf-8"?>
<!-- Generator: Adobe Illustrator 24.2.3, SVG Export Plug-In . SVG Version: 6.00 Build 0)  -->
<svg version="1.1" id="Layer_1" xmlns="http://www.w3.org/2000/svg" xmlns:xlink="http://www.w3.org/1999/xlink" x="0px" y="0px"
	 viewBox="0 0 500 500" style="enable-background:new 0 0 500 500;" xml:space="preserve">
<style type="text/css">
	.st0{fill:#EAECEF;}
</style>
<g>
	<polygon class="st0" points="443.1,330.4 443.1,273.4 500,273.4 500,226.6 443.1,226.6 443.1,169.6 396.2,169.6 396.2,226.6 
		339.3,226.6 339.3,273.4 396.2,273.4 396.2,330.4 	"/>
	<path class="st0" d="M428.6,464.3c0,0,0-29.5-2.5-44.9c-2-12.2-18.9-28.2-90.5-54.6c-70.5-25.9-66.2-13.3-66.2-60.9
		c0-30.9,15.7-12.9,25.8-71.7c3.9-23.1,7-7.7,15.5-44.8c4.5-19.4-3-20.9-2.1-30.1c0.9-9.3,1.8-17.5,3.5-36.5
		c2-23.4-19.8-85.2-97.8-85.2s-99.8,61.7-97.7,85.3c1.7,18.9,2.6,27.2,3.5,36.5s-6.6,10.7-2.1,30.1c8.5,36.9,11.6,21.5,15.5,44.8
		c10,58.7,25.8,40.7,25.8,71.7c0,47.8,4.4,35.2-66.2,60.9c-71.7,26.2-88.6,42.4-90.5,54.6C0,434.8,0,464.3,0,464.3h214.3H428.6z"/>
</g>
</svg>
