<svg id="Réteg_1" data-name="Réteg 1" xmlns="http://www.w3.org/2000/svg" viewBox="0 0 391.32 295.69"><defs><style>.cls-1,.cls-2{fill:#eaecef;}.cls-2{fill-rule:evenodd;}</style></defs><g id="database_security"><path class="cls-1" d="M158.81,169.29V116.22c.1-1.17-.9-7.37-9-12.26S127,94.75,98.65,94.74,55.6,99,47.49,104s-9.14,11.09-9,12.26V214c-.15,1.51,1.3,7,9.34,10.86s22.53,7.43,50.82,7.45c8.5,0,15.73-.32,21.94-.88a38.66,38.66,0,0,0,38.24-62.1ZM98.63,223.67c-27.57,0-41-3.52-47-6.54-3-1.5-4.23-2.78-4.62-3.36-.06-.12.05-.2,0-.27l0-85.31c.17.1.29.2.44.28,8.11,4.94,22.78,9.21,51.16,9.24s43-4.3,51.12-9.22c.15-.1.29-.22.44-.3v33.25a38.67,38.67,0,0,0-45.85,62.18C102.51,223.65,100.64,223.69,98.63,223.67Zm30.08,0a30.09,30.09,0,1,1,30.1-30.08A30.12,30.12,0,0,1,128.71,223.67Z" transform="translate(-38.46 -12.11)"/><path class="cls-1" d="M142.23,189.29c0-.56.07-1.15.07-1.75a18.58,18.58,0,0,0-2.39-9.72,13.79,13.79,0,0,0-22.38,0,18.2,18.2,0,0,0-2.39,9.72c0,.6,0,1.19,0,1.75h-3.66v21.5h34.38v-21.5Zm-8.61,0H123.8c0-.56-.08-1.15-.08-1.75a10.15,10.15,0,0,1,1.1-5.16c.74-1,1.16-1.57,3.91-1.69,2.73.12,3.13.71,3.88,1.69a10.32,10.32,0,0,1,1.09,5.16C133.7,188.16,133.67,188.73,133.62,189.29Z" transform="translate(-38.46 -12.11)"/></g><path class="cls-1" d="M307.32,57.49H231.43A8.47,8.47,0,0,0,223,65.94v59a8.46,8.46,0,0,0,8.43,8.43h75.89a8.46,8.46,0,0,0,8.43-8.43v-59A8.47,8.47,0,0,0,307.32,57.49ZM234.8,71.25h7.42v7.42H234.8Zm0,20.48h7.42v7.42H234.8Zm72.86,27.91H231.09v-7.42h76.57Zm0-20.49H250.5V91.73h57.16Zm0-20.48H250.5V71.25h57.16Z" transform="translate(-38.46 -12.11)"/><path class="cls-1" d="M305.74,216.8H229.85a8.47,8.47,0,0,0-8.43,8.44v59a8.46,8.46,0,0,0,8.43,8.43h75.89a8.46,8.46,0,0,0,8.43-8.43v-59A8.47,8.47,0,0,0,305.74,216.8Zm-72.52,13.75h7.42V238h-7.42Zm0,20.49h7.42v7.42h-7.42Zm72.85,27.9H229.51v-7.41h76.56Zm0-20.48H248.9V251h57.17Zm0-20.49H248.9v-7.42h57.17Z" transform="translate(-38.46 -12.11)"/><path class="cls-2" d="M423.45,102c-3.76-1.07-6.62,1-8.65,3.5a24.75,24.75,0,0,0-3.39,6.16h13.46a12.34,12.34,0,0,0,2.17-5.28C427.2,104.49,426.39,102.79,423.45,102Zm.41,7.82h-9.63a18.55,18.55,0,0,1,2-3.17c1.7-2.13,3.87-3.69,6.71-2.88,1.35.38,2.39,1,2.27,2.47A9.45,9.45,0,0,1,423.86,109.77Z" transform="translate(-38.46 -12.11)"/><path class="cls-2" d="M406.85,105.45c-2-2.53-4.89-4.57-8.64-3.5-2.93.84-3.76,2.54-3.61,4.38a12.38,12.38,0,0,0,2.2,5.28h13.45A23.89,23.89,0,0,0,406.85,105.45Zm-9,4.32a9.15,9.15,0,0,1-1.37-3.58c-.12-1.51.93-2.09,2.28-2.47,2.83-.81,5,.75,6.69,2.88a18,18,0,0,1,2,3.17Z" transform="translate(-38.46 -12.11)"/><polygon class="cls-2" points="367.38 108.97 367.38 100.79 358.38 100.79 358.22 100.79 353.48 100.79 353.48 108.97 356.06 108.97 356.36 108.97 367.38 108.97"/><polygon class="cls-2" points="370.11 100.79 370.11 108.97 374.62 108.97 374.62 100.79 372.63 100.79 372.43 100.79 372.3 100.79 372.1 100.79 370.11 100.79"/><polygon class="cls-2" points="377.18 100.79 377.18 108.97 388.1 108.97 388.4 108.97 390.96 108.97 390.96 100.79 386.26 100.79 386.1 100.79 377.18 100.79"/><polygon class="cls-2" points="388.53 110.75 377.18 110.75 377.18 134.21 388.53 134.21 388.53 110.75"/><polygon class="cls-2" points="374.62 134.21 374.62 110.75 370.11 110.75 370.11 134.21 374.62 134.21"/><polygon class="cls-2" points="367.38 134.21 367.38 110.75 356.2 110.75 356.2 134.21 367.38 134.21"/><path class="cls-2" d="M423.81,26.86c-3.76-1.06-6.63,1-8.65,3.51a24.07,24.07,0,0,0-3.39,6.15h13.46a12.46,12.46,0,0,0,2.17-5.28C427.55,29.4,426.74,27.7,423.81,26.86Zm.4,7.82h-9.62a19.57,19.57,0,0,1,2-3.17c1.71-2.12,3.88-3.69,6.71-2.88,1.35.39,2.4,1,2.28,2.48A9.43,9.43,0,0,1,424.21,34.68Z" transform="translate(-38.46 -12.11)"/><path class="cls-2" d="M407.2,30.37c-2-2.53-4.89-4.57-8.63-3.51-2.94.84-3.76,2.54-3.61,4.38a12.49,12.49,0,0,0,2.19,5.28h13.46A24,24,0,0,0,407.2,30.37Zm-9,4.31a9.24,9.24,0,0,1-1.36-3.57c-.12-1.52.93-2.09,2.27-2.48,2.84-.81,5,.76,6.7,2.88a18.29,18.29,0,0,1,2,3.17Z" transform="translate(-38.46 -12.11)"/><polygon class="cls-2" points="367.73 33.88 367.73 25.7 358.74 25.7 358.58 25.7 353.83 25.7 353.83 33.88 356.42 33.88 356.72 33.88 367.73 33.88"/><polygon class="cls-2" points="370.47 25.7 370.47 33.88 374.98 33.88 374.98 25.7 372.99 25.7 372.79 25.7 372.66 25.7 372.46 25.7 370.47 25.7"/><polygon class="cls-2" points="377.53 25.7 377.53 33.88 388.46 33.88 388.76 33.88 391.32 33.88 391.32 25.7 386.61 25.7 386.46 25.7 377.53 25.7"/><polygon class="cls-2" points="388.89 35.66 377.53 35.66 377.53 59.12 388.89 59.12 388.89 35.66"/><polygon class="cls-2" points="374.98 59.12 374.98 35.66 370.47 35.66 370.47 59.12 374.98 59.12"/><polygon class="cls-2" points="367.73 59.12 367.73 35.66 356.56 35.66 356.56 59.12 367.73 59.12"/><path class="cls-1" d="M288.61,50.57a35,35,0,0,0-.22-4c-.18-1.1-1.69-2.54-8.13-4.9s-5.94-1.19-5.94-5.47c0-2.78,1.42-1.16,2.32-6.43.35-2.08.63-.69,1.39-4,.4-1.74-.27-1.87-.19-2.71s.16-1.57.31-3.27c.18-2.1-1.77-7.64-8.78-7.64s-8.95,5.54-8.76,7.65c.15,1.69.23,2.44.31,3.27s-.59,1-.19,2.71c.76,3.32,1,1.93,1.39,4,.9,5.27,2.32,3.65,2.32,6.43,0,4.29.39,3.15-5.94,5.47s-8,3.8-8.13,4.9a33.24,33.24,0,0,0-.23,4h38.47Z" transform="translate(-38.46 -12.11)"/><path class="cls-1" d="M288.61,210.21H250.14a33.24,33.24,0,0,1,.23-4c.17-1.09,1.69-2.54,8.13-4.9s5.93-1.19,5.93-5.47c0-.18,0-.35,0-.5-5.16-.31-10.88-1.27-8.55-2.77,2.66-1.72,4.47-12.1,4.72-13.62,0,0,0,0,0-.05.11-2.36,2.26-7.15,8.76-7.15s8.65,4.79,8.77,7.15c0,0,0,0,0,.05.25,1.52,2.06,11.9,4.72,13.62,2.33,1.5-3.39,2.46-8.55,2.77a3.7,3.7,0,0,0,0,.49c0,4.28-.38,3.15,6,5.46s7.94,3.81,8.12,4.9A35.21,35.21,0,0,1,288.61,210.21Z" transform="translate(-38.46 -12.11)"/><path class="cls-1" d="M129.13,89.58h-61v-5a34.74,34.74,0,0,1,.22-4c.17-1.1,1.7-2.55,8.13-4.91s6-1.18,6-5.46c0-2.78-1.42-1.16-2.33-6.44-.35-2.07-.62-.69-1.38-4-.41-1.74.27-1.87.19-2.7s-.17-1.58-.31-3.29c-.2-2.11,1.76-7.65,8.75-7.65s9,5.54,8.79,7.65c-.16,1.71-.24,2.45-.31,3.27s.59,1,.19,2.72c-.76,3.32-1,1.94-1.4,4-.89,5.26-2.31,3.66-2.31,6.42,0,4.29-.39,3.16,5.93,5.48a33.8,33.8,0,0,1,6.28,2.84c.54-.54.45-1.37.45-3.34a4,4,0,0,0,0-.51c-5.15-.3-10.87-1.26-8.54-2.76,2.66-1.72,4.46-12.11,4.72-13.63a.43.43,0,0,0,0,0c.12-2.36,2.26-7.15,8.77-7.15s8.65,4.79,8.77,7.15c0,0,0,0,0,0,.25,1.52,2,11.91,4.72,13.63,2.32,1.5-3.39,2.46-8.55,2.76a3.78,3.78,0,0,0,0,.49c0,4.28-.39,3.15,6,5.46s7.95,3.81,8.13,4.91c.1.61.15,1.47.19,2.23C129.13,88.75,129.13,89.58,129.13,89.58Z" transform="translate(-38.46 -12.11)"/><rect class="cls-1" x="167.73" y="128" width="38.52" height="5" rx="2.5" transform="translate(-79.45 123) rotate(-36.07)"/><path class="cls-1" d="M202,122.65l-27.1,19.74" transform="translate(-38.46 -12.11)"/><path class="cls-1" d="M172,138.34l27.1-19.73" transform="translate(-38.46 -12.11)"/><rect class="cls-1" x="334.76" y="63.07" width="38.52" height="5" rx="2.5" transform="translate(-39.6 112.57) rotate(-19.94)"/><path class="cls-1" d="M370.63,62.2,339.12,73.63" transform="translate(-38.46 -12.11)"/><path class="cls-1" d="M337.41,68.93,368.93,57.5" transform="translate(-38.46 -12.11)"/><rect class="cls-1" x="334.76" y="63.07" width="38.52" height="5" rx="2.5" transform="translate(-39.6 112.57) rotate(-19.94)"/><path class="cls-1" d="M370.63,62.2,339.12,73.63" transform="translate(-38.46 -12.11)"/><path class="cls-1" d="M337.41,68.93,368.93,57.5" transform="translate(-38.46 -12.11)"/><rect class="cls-1" x="351.52" y="103.59" width="5" height="38.52" rx="2.5" transform="translate(79.33 401.64) rotate(-70.06)"/><path class="cls-1" d="M337.41,119.49l31.52,11.43" transform="translate(-38.46 -12.11)"/><path class="cls-1" d="M370.63,126.22l-31.51-11.43" transform="translate(-38.46 -12.11)"/><path class="cls-2" d="M423.45,263.43c-3.76-1.06-6.62,1-8.65,3.51a24.72,24.72,0,0,0-3.39,6.15h13.46a12.34,12.34,0,0,0,2.17-5.28C427.2,266,426.39,264.27,423.45,263.43Zm.41,7.82h-9.63a19,19,0,0,1,2-3.17c1.7-2.12,3.87-3.69,6.71-2.88,1.35.39,2.39,1,2.27,2.48A9.34,9.34,0,0,1,423.86,271.25Z" transform="translate(-38.46 -12.11)"/><path class="cls-2" d="M406.85,266.94c-2-2.53-4.89-4.57-8.64-3.51-2.93.84-3.76,2.55-3.61,4.38a12.38,12.38,0,0,0,2.2,5.28h13.45A23.86,23.86,0,0,0,406.85,266.94Zm-9,4.31a9,9,0,0,1-1.37-3.57c-.12-1.52.93-2.09,2.28-2.48,2.83-.81,5,.76,6.69,2.88a18.33,18.33,0,0,1,2,3.17Z" transform="translate(-38.46 -12.11)"/><polygon class="cls-2" points="367.38 270.45 367.38 262.28 358.38 262.28 358.22 262.28 353.48 262.28 353.48 270.45 356.06 270.45 356.36 270.45 367.38 270.45"/><polygon class="cls-2" points="370.11 262.28 370.11 270.45 374.62 270.45 374.62 262.28 372.63 262.28 372.43 262.28 372.3 262.28 372.1 262.28 370.11 262.28"/><polygon class="cls-2" points="377.18 262.28 377.18 270.45 388.1 270.45 388.4 270.45 390.96 270.45 390.96 262.28 386.26 262.28 386.1 262.28 377.18 262.28"/><polygon class="cls-2" points="388.53 272.23 377.18 272.23 377.18 295.69 388.53 295.69 388.53 272.23"/><polygon class="cls-2" points="374.62 295.69 374.62 272.23 370.11 272.23 370.11 295.69 374.62 295.69"/><polygon class="cls-2" points="367.38 295.69 367.38 272.23 356.2 272.23 356.2 295.69 367.38 295.69"/><path class="cls-2" d="M423.81,188.34c-3.76-1.06-6.63,1-8.65,3.51a24.24,24.24,0,0,0-3.39,6.15h13.46a12.37,12.37,0,0,0,2.17-5.27C427.55,190.89,426.74,189.19,423.81,188.34Zm.4,7.83h-9.62a19.14,19.14,0,0,1,2-3.17c1.71-2.13,3.88-3.7,6.71-2.89,1.35.39,2.4,1,2.28,2.48A9.47,9.47,0,0,1,424.21,196.17Z" transform="translate(-38.46 -12.11)"/><path class="cls-2" d="M407.2,191.85c-2-2.53-4.89-4.57-8.63-3.51-2.94.85-3.76,2.55-3.61,4.39a12.39,12.39,0,0,0,2.19,5.27h13.46A24.13,24.13,0,0,0,407.2,191.85Zm-9,4.32a9.28,9.28,0,0,1-1.36-3.58c-.12-1.52.93-2.09,2.27-2.48,2.84-.81,5,.76,6.7,2.89a17.92,17.92,0,0,1,2,3.17Z" transform="translate(-38.46 -12.11)"/><polygon class="cls-2" points="367.73 195.36 367.73 187.19 358.74 187.19 358.58 187.19 353.83 187.19 353.83 195.36 356.42 195.36 356.72 195.36 367.73 195.36"/><polygon class="cls-2" points="370.47 187.19 370.47 195.36 374.98 195.36 374.98 187.19 372.99 187.19 372.79 187.19 372.66 187.19 372.46 187.19 370.47 187.19"/><polygon class="cls-2" points="377.53 187.19 377.53 195.36 388.46 195.36 388.76 195.36 391.32 195.36 391.32 187.19 386.61 187.19 386.46 187.19 377.53 187.19"/><polygon class="cls-2" points="388.89 197.14 377.53 197.14 377.53 220.61 388.89 220.61 388.89 197.14"/><polygon class="cls-2" points="374.98 220.61 374.98 197.14 370.47 197.14 370.47 220.61 374.98 220.61"/><polygon class="cls-2" points="367.73 220.61 367.73 197.14 356.56 197.14 356.56 220.61 367.73 220.61"/><rect class="cls-1" x="334.76" y="224.55" width="38.52" height="5" rx="2.5" transform="translate(-94.67 122.26) rotate(-19.94)"/><path class="cls-1" d="M370.63,223.68l-31.51,11.43" transform="translate(-38.46 -12.11)"/><path class="cls-1" d="M337.41,230.41,368.93,219" transform="translate(-38.46 -12.11)"/><rect class="cls-1" x="334.76" y="224.55" width="38.52" height="5" rx="2.5" transform="translate(-94.67 122.26) rotate(-19.94)"/><path class="cls-1" d="M370.63,223.68l-31.51,11.43" transform="translate(-38.46 -12.11)"/><path class="cls-1" d="M337.41,230.41,368.93,219" transform="translate(-38.46 -12.11)"/><rect class="cls-1" x="351.52" y="265.07" width="5" height="38.52" rx="2.5" transform="translate(-72.47 508.05) rotate(-70.06)"/><path class="cls-1" d="M337.41,281l31.52,11.43" transform="translate(-38.46 -12.11)"/><path class="cls-1" d="M370.63,287.7l-31.51-11.43" transform="translate(-38.46 -12.11)"/><rect class="cls-1" x="184.5" y="216.78" width="5" height="38.52" rx="2.5" transform="translate(-152.36 236.12) rotate(-53.93)"/><path class="cls-1" d="M172,228.19l27.1,19.74" transform="translate(-38.46 -12.11)"/><path class="cls-1" d="M202,243.89l-27.1-19.74" transform="translate(-38.46 -12.11)"/></svg>