<?xml version="1.0" encoding="utf-8"?>
<!-- Generator: Adobe Illustrator 24.2.3, SVG Export Plug-In . SVG Version: 6.00 Build 0)  -->
<svg version="1.1" id="Réteg_1" xmlns="http://www.w3.org/2000/svg" xmlns:xlink="http://www.w3.org/1999/xlink" x="0px" y="0px"
	 viewBox="0 0 500 500" style="enable-background:new 0 0 500 500;" xml:space="preserve">
<style type="text/css">
	.st0{fill:#EAECEF;}
</style>
<path class="st0" d="M454.6,41H45.4C20.4,41.2,0.1,61.4,0,86.5v318.2c0.1,25,20.4,45.3,45.4,45.5h409.1
	c25.1-0.1,45.3-20.4,45.5-45.5V86.5C499.9,61.4,479.6,41.2,454.6,41z M63.6,115.2h40v40h-40V115.2z M63.6,225.7h40v40h-40V225.7z
	 M456.5,376H43.6v-40h412.9V376z M456.5,265.6H148.2v-40h308.4L456.5,265.6L456.5,265.6z M456.5,155.1H148.2v-40h308.4L456.5,155.1
	L456.5,155.1z"/>
</svg>
