<?xml version="1.0" encoding="utf-8"?>
<!-- Generator: Adobe Illustrator 24.2.3, SVG Export Plug-In . SVG Version: 6.00 Build 0)  -->
<svg version="1.1" id="Réteg_1" xmlns:sketch="http://www.bohemiancoding.com/sketch/ns"
	 xmlns="http://www.w3.org/2000/svg" xmlns:xlink="http://www.w3.org/1999/xlink" x="0px" y="0px" viewBox="0 0 500 500"
	 style="enable-background:new 0 0 500 500;" xml:space="preserve">
<style type="text/css">
	.st0{fill-rule:evenodd;clip-rule:evenodd;fill:#EAECEF;}
</style>
<desc></desc>
<g id="Page-1">
	<g id="Core" transform="translate(-212.000000, -422.000000)">
		<g id="shopping-cart" transform="translate(212.000000, 422.000000)">
			<path id="Shape" class="st0" d="M150,400c-27.5,0-50,22.5-50,50s22.5,50,50,50s50-22.5,50-50S177.5,400,150,400L150,400z M0,0v50
				h50l90,190l-35,60c-2.5,7.5-5,17.5-5,25c0,27.5,22.5,50,50,50h300v-50H160c-2.5,0-5-2.5-5-5v-2.5l22.5-42.5h185
				c20,0,35-10,42.5-25l90-162.5c5-5,5-7.5,5-12.5c0-15-10-25-25-25H105L82.5,0H0L0,0z M400,400c-27.5,0-50,22.5-50,50
				s22.5,50,50,50s50-22.5,50-50S427.5,400,400,400L400,400z"/>
		</g>
	</g>
</g>
</svg>
